<svg width="47" height="47" viewBox="0 0 47 47" fill="none" xmlns="http://www.w3.org/2000/svg">
<path d="M39.7949 37.0663L33.2617 30.5523C35.3696 27.8669 36.5133 24.5507 36.5091 21.1369C36.5091 18.0965 35.6075 15.1245 33.9184 12.5965C32.2293 10.0686 29.8284 8.09828 27.0195 6.93479C24.2106 5.77131 21.1198 5.46689 18.1379 6.06003C15.156 6.65317 12.4169 8.11723 10.2671 10.2671C8.11723 12.4169 6.65317 15.156 6.06003 18.1379C5.46689 21.1198 5.77131 24.2106 6.93479 27.0195C8.09828 29.8284 10.0686 32.2293 12.5965 33.9184C15.1245 35.6075 18.0965 36.5091 21.1369 36.5091C24.5507 36.5133 27.8669 35.3696 30.5523 33.2617L37.0663 39.7949C37.2449 39.975 37.4575 40.1179 37.6916 40.2155C37.9258 40.313 38.1769 40.3633 38.4306 40.3633C38.6842 40.3633 38.9354 40.313 39.1696 40.2155C39.4037 40.1179 39.6162 39.975 39.7949 39.7949C39.975 39.6162 40.1179 39.4037 40.2155 39.1696C40.313 38.9354 40.3633 38.6842 40.3633 38.4306C40.3633 38.1769 40.313 37.9258 40.2155 37.6916C40.1179 37.4575 39.975 37.2449 39.7949 37.0663ZM9.60771 21.1369C9.60771 18.8566 10.2839 16.6276 11.5507 14.7316C12.8176 12.8356 14.6182 11.3579 16.7248 10.4853C18.8315 9.6127 21.1496 9.38438 23.3861 9.82924C25.6225 10.2741 27.6768 11.3721 29.2892 12.9845C30.9016 14.5969 31.9996 16.6512 32.4445 18.8876C32.8893 21.1241 32.661 23.4422 31.7884 25.5489C30.9158 27.6556 29.4381 29.4562 27.5421 30.723C25.6462 31.9898 23.4171 32.666 21.1369 32.666C18.0791 32.666 15.1467 31.4513 12.9845 29.2892C10.8224 27.1271 9.60771 24.1946 9.60771 21.1369Z" fill="#1E1D1A"/>
</svg>
